<svg id="Layer_2" data-name="Layer 2" xmlns="http://www.w3.org/2000/svg" viewBox="0 0 81.66 97.4"><defs><style>.cls-1{fill:none;stroke:#000;stroke-miterlimit:10;}.cls-2{fill:#dc4830;}.cls-3{fill:#004271;}</style></defs><title>casa-logo</title><path class="cls-1" d="M23.14,37.52" transform="translate(-0.27 -0.29)"/><path class="cls-1" d="M36,29.92" transform="translate(-0.27 -0.29)"/><path class="cls-1" d="M38.72,24.43" transform="translate(-0.27 -0.29)"/><path class="cls-1" d="M20.21,23.79" transform="translate(-0.27 -0.29)"/><path class="cls-2" d="M33.46,23.64a7.48,7.48,0,0,0,5.26,1.94c4.89-.8,6.51-5.68,14.07-11.25a18.18,18.18,0,0,1,7.48-3.64c1.22-.27,8.17-1.78,13.79,2.8a15.86,15.86,0,0,1,5.23,15.07c.56-1,4.63-8.28,1.41-16.57-.17-.44-4-9.82-13.15-11.45C60.42-.74,54.69,3.36,53.63,4.12a47.64,47.64,0,0,0-4,3.5C46.7,10.41,48.15,9,44.84,12c-.17.15-2.85,3.15-3.06,3.38a5.48,5.48,0,0,1-5,1.79c-2.77-1-6-4.54-9.57-7.58C23,5.94,20.61,4.78,15.91,4.3A15.09,15.09,0,0,0,6.78,6.6,13.07,13.07,0,0,0,1,12.76c-.67,1.66-.69,3-.72,5.54A37.15,37.15,0,0,0,3.15,33.56a37.82,37.82,0,0,0,4.59,8c-.91-3.07-1.83-6.13-2.74-9.2,0,0-2.62-10.92,5.55-15.83,7.74-4.66,12.27-1.28,14.5-.11" transform="translate(-0.27 -0.29)"/><path class="cls-3" d="M32.78,40.18c-.07,3.93,2.69,8.6,6.07,8.55,3.15,0,5.82-4.2,5.8-7.85,0-4.26-3.67-8.7-7-8.24C34.73,33,32.84,37,32.78,40.18Z" transform="translate(-0.27 -0.29)"/><path class="cls-3" d="M74.63,38.39c1.75-2.4,3-4.25,2.43-5.11s-3.74-.28-5.88.83c-3.77,2-5.35,5.47-6.44,7.41-4.68,8.32-15.26,14.54-23.88,14.36A23.62,23.62,0,0,1,30,52.62c-2.1-1.29-7.61-5.19-11.87-7.91a6.11,6.11,0,0,0-3.64-1.09c-1.07.05-2.95.5-3.32,1.53-.7,2,4.39,5.58,8.88,8.69,8.07,5.59,12,6.68,12.25,9.82.07.94-.89,2.51-2.81,5.62-2,3.29-3.6,5.42-6.13,9.19C20.09,83.4,19,85.37,19.8,87a2.38,2.38,0,0,0,1.34,1.28c2,.56,4-3,7.92-7s6.7-6.91,10.14-7,5.85,2.44,8.3,4.85c2.3,2.26,4,5.1,7.53,10.79,1.46,2.37,2.69,4.52,5.37,6.19.77.48,3.5,2.18,4.4,1.4,2-1.72-5.72-14.38-8.62-19.14-4.37-7.2-8.1-12.19-6.32-14.88.47-.7.9-.62,3.64-2.42,0,0,2.18-1.43,5.43-4.09C64.2,52.66,67.85,47.71,74.63,38.39Z" transform="translate(-0.27 -0.29)"/><path class="cls-1" d="M20.33,87.18" transform="translate(-0.27 -0.29)"/><path class="cls-1" d="M18.42,33.75" transform="translate(-0.27 -0.29)"/></svg>